# xmcd
#
# Track frame offsets:
#	150
#	14015
#	37194
#	54599
#	74888
#	93792
#	110051
#	128639
#	149290
#	168826
#	182007
#
# Disc length: 2632 seconds
#
# Revision: 0
# Processed by: cddbd v1.5.2PL0 Copyright (c) Steve Scherf et al.
# Submitted via: EasyCDDAExtractor 11.1.0.1
#
DISCID=a00a460b
DTITLE=Dar Williams - End of the Summer
DYEAR=1997
DGENRE=Country
TTITLE0=Are You Out There
TTITLE1=Party Generation
TTITLE2=If I Wrote You
TTITLE3=What Do You Hear In These Sounds
TTITLE4=The End Of The Summer
TTITLE5=Teenagers, Kick Our Butts
TTITLE6=My Friends
TTITLE7=Bought And Sold
TTITLE8=Road Buddy
TTITLE9=It's A War In There
TTITLE10=Better Things
EXTD=
EXTT0=
EXTT1=
EXTT2=
EXTT3=
EXTT4=
EXTT5=
EXTT6=
EXTT7=
EXTT8=
EXTT9=
EXTT10=
PLAYORDER=
